<?xml version="1.0" standalone="no"?>
<!DOCTYPE svg PUBLIC "-//W3C//DTD SVG 20010904//EN"
 "http://www.w3.org/TR/2001/REC-SVG-20010904/DTD/svg10.dtd">
<svg version="1.0" xmlns="http://www.w3.org/2000/svg"
 width="592.000000pt" height="592.000000pt" viewBox="0 0 592.000000 592.000000"
 preserveAspectRatio="xMidYMid meet">
<metadata>
Created by potrace 1.11, written by Peter Selinger 2001-2013
</metadata>
<g transform="translate(0.000000,592.000000) scale(0.100000,-0.100000)"
fill="#000000" stroke="none">
<path d="M2618 5915 c-1 -2 -36 -6 -77 -9 -41 -4 -77 -8 -80 -10 -3 -2 -28 -6
-56 -10 -44 -5 -105 -16 -171 -31 -12 -3 -62 -17 -110 -31 -49 -14 -93 -27
-99 -28 -5 -2 -23 -8 -38 -14 -16 -7 -32 -12 -37 -12 -5 0 -29 -9 -54 -20 -26
-11 -50 -20 -54 -21 -4 0 -18 -7 -32 -14 -14 -7 -77 -39 -140 -70 -63 -32
-127 -66 -142 -76 -14 -11 -29 -19 -32 -19 -6 0 -198 -130 -206 -139 -3 -4
-25 -22 -50 -41 -95 -73 -332 -304 -387 -376 -12 -16 -33 -42 -47 -59 -34 -38
-188 -269 -211 -315 -10 -19 -23 -38 -29 -42 -6 -4 -8 -8 -4 -8 4 0 -9 -27
-28 -61 -18 -33 -34 -63 -34 -65 0 -2 -13 -32 -29 -66 -64 -140 -143 -381
-170 -518 -6 -30 -14 -66 -16 -80 -3 -14 -8 -41 -11 -60 -2 -19 -7 -46 -9 -60
-13 -67 -19 -193 -19 -370 0 -204 5 -284 29 -425 3 -16 8 -46 11 -65 3 -19 14
-71 25 -115 11 -44 21 -90 23 -102 3 -12 9 -31 15 -42 6 -11 11 -29 11 -40 0
-11 6 -35 14 -53 8 -18 33 -82 57 -142 42 -110 159 -347 185 -377 8 -8 14 -19
14 -23 0 -12 118 -183 180 -261 183 -231 389 -418 630 -574 52 -33 100 -64
105 -69 17 -13 256 -129 320 -155 132 -54 377 -126 480 -141 22 -3 51 -8 65
-11 54 -12 211 -26 302 -28 42 -2 80 -5 83 -9 6 -5 7 -64 5 -168 -1 -8 0 -122
1 -253 l2 -238 121 6 c211 10 244 15 543 76 47 9 159 43 218 65 11 4 25 8 31
9 64 14 398 169 494 230 22 14 42 25 44 25 6 0 154 98 188 124 14 12 41 32 59
46 184 138 416 367 534 525 16 22 35 46 43 54 16 17 172 252 202 306 34 60
150 291 150 298 0 4 11 30 24 59 13 29 43 109 65 178 63 189 62 185 77 264 2
16 7 32 9 36 2 4 6 20 9 36 8 45 15 87 20 109 30 154 40 289 40 525 0 182 -5
291 -18 370 -3 14 -8 48 -11 75 -11 76 -13 88 -19 118 -3 15 -8 39 -11 55 -3
15 -8 35 -11 44 -3 9 -7 25 -9 35 -5 23 -29 113 -50 183 -49 164 -163 427
-258 596 -37 66 -192 300 -211 319 -6 7 -22 27 -36 46 -79 106 -262 298 -384
404 -32 28 -63 55 -69 60 -25 22 -205 154 -247 181 -210 134 -458 255 -654
318 -98 32 -174 54 -211 61 -51 10 -53 11 -100 23 -39 11 -125 25 -215 37 -25
3 -61 8 -80 11 -39 6 -456 14 -462 9z m423 -539 c37 -4 77 -9 90 -11 13 -3 53
-10 88 -16 36 -5 67 -12 71 -14 6 -4 21 -7 85 -20 47 -10 254 -80 315 -108 30
-14 78 -35 105 -47 28 -12 61 -30 75 -40 14 -10 27 -17 30 -17 3 0 28 -12 55
-28 217 -127 438 -312 610 -511 33 -38 66 -75 73 -82 6 -7 12 -17 12 -21 0 -5
10 -19 23 -32 55 -57 164 -237 246 -404 77 -160 173 -434 186 -535 1 -8 5 -26
8 -40 45 -177 61 -564 32 -770 -4 -25 -7 -52 -7 -60 0 -8 -6 -46 -14 -85 -7
-38 -15 -81 -18 -95 -33 -193 -170 -541 -283 -722 -13 -21 -23 -42 -23 -47 0
-5 -3 -11 -7 -13 -9 -4 -53 -65 -53 -73 0 -6 -117 -164 -129 -175 -3 -3 -35
-39 -71 -80 -36 -40 -98 -106 -139 -145 -41 -38 -83 -78 -92 -87 -42 -40 -247
-189 -318 -231 -211 -125 -451 -225 -632 -266 l-39 -9 -2 42 c0 22 0 48 1 56
1 8 2 20 2 25 0 6 0 57 -1 115 0 58 0 112 0 120 1 8 0 44 -1 80 -1 36 -1 70 1
75 1 6 1 15 0 20 -1 6 -3 23 -3 40 l-2 30 -310 1 c-285 1 -412 6 -487 19 -15
3 -43 8 -60 11 -18 3 -42 7 -53 9 -11 2 -31 6 -45 10 -14 4 -34 8 -45 10 -27
4 -230 71 -280 93 -327 140 -626 371 -840 650 -5 7 -15 18 -20 25 -28 34 -127
192 -165 262 -46 87 -121 255 -114 255 2 0 -2 13 -10 29 -21 39 -53 153 -81
285 -34 157 -45 263 -45 436 1 140 9 258 24 336 3 12 7 38 10 59 34 210 141
492 267 704 58 97 177 257 247 333 70 75 190 188 238 223 32 24 95 71 110 84
51 42 281 167 379 206 69 28 178 67 198 71 24 6 25 6 82 22 70 19 179 38 273
47 37 4 68 8 70 9 5 5 318 -2 383 -8z"/>
</g>
</svg>
