
<svg width="109px" height="37px" viewBox="0 0 109 37" version="1.1" xmlns="http://www.w3.org/2000/svg" xmlns:xlink="http://www.w3.org/1999/xlink">
    <!-- Generator: Sketch 51.2 (57519) - http://www.bohemiancoding.com/sketch -->
    <desc>Created with Sketch.</desc>
    <defs></defs>
    <g id="Page-1" stroke="none" stroke-width="1" fill="none" fill-rule="evenodd">
        <g id="Desktop" transform="translate(-75.000000, -32.000000)" fill-rule="nonzero">
            <g id="Header">
                <g id="z-dev-logo" transform="translate(75.000000, 32.000000)">
                    <path d="M51.1299977,25 L51.1299977,22.2999999 L59.072498,12.1299995 L59.072498,12.0399995 L51.3324977,12.0399995 L51.3324977,9.24999937 L62.9424982,9.24999937 L62.9424982,11.9949995 L55.0224979,22.1424999 L55.0224979,22.2324999 L63.0774982,22.2324999 L63.0774982,25 L51.1299977,25 Z M65.5974983,25 L65.5974983,9.24999937 L70.9749985,9.24999937 C75.6099987,9.24999937 78.7824988,12.3999995 78.7824988,17.1249997 C78.7824988,21.5124999 75.8349987,25 70.9749985,25 L65.5974983,25 Z M68.4999984,22.2549999 L70.7724985,22.2549999 C73.8999986,22.2549999 75.6324987,20.4099998 75.6324987,17.1249997 C75.6324987,13.8624996 73.8999986,12.0174995 70.7724985,12.0174995 L68.4999984,12.0174995 L68.4999984,22.2549999 Z M81.4374989,25 L81.4374989,9.24999937 L92.3499993,9.24999937 L92.3499993,12.0174995 L84.519999,12.0174995 L84.519999,15.5049996 L91.6524993,15.5049996 L91.6524993,18.2499997 L84.519999,18.2499997 L84.519999,22.2549999 L92.3499993,22.2549999 L92.3499993,25 L81.4374989,25 Z M99.4149996,25 L93.7449994,9.47499938 L93.7449994,9.24999937 L97.2099995,9.24999937 L101.1475,21.2424999 L101.2375,21.2424999 L105.13,9.24999937 L108.64,9.24999937 L108.64,9.47499938 L103.015,25 L99.4149996,25 Z" id="ZDEV" fill="#FFFFFF"></path>
                    <path d="M15.9985252,0 C7.19856798,0.00539419087 0,7.39460581 0,16.4253112 C0,25.4589212 7.20382507,32.8506224 16.0078262,32.8506224 L16.0078262,37 C25.8883167,37 34,28.6186722 34,18.4804979 C34,8.34522822 25.8745674,0.00539419087 15.9985252,0 Z M16.0078262,0 L15.9892242,0 L15.9985252,0 L16.0078262,0 Z M15.9985252,3.31950207 C19.9110101,3.3219917 23.6099766,4.90912863 26.4144296,7.78838174 C29.2196915,10.6680498 30.7648703,14.4651452 30.7648703,18.4804979 C30.7648703,22.5033195 29.2200959,26.3099585 26.4164516,29.2 C24.4017746,31.2759336 21.9269003,32.6817427 19.2429559,33.3082988 L19.2429559,32.8506224 L19.2429559,29.5311203 L16.0078262,29.5311203 C8.9649488,29.5311203 3.2351297,23.6518672 3.2351297,16.4253112 C3.2351297,9.20373444 8.96090488,3.32448133 15.9985252,3.31950207 Z" id="Fill-1" fill="#8FFFCD"></path>
                </g>
            </g>
        </g>
    </g>
</svg>
